<svg xmlns="http://www.w3.org/2000/svg" style="display: none;">
    <symbol id="partneri" viewBox="0 0 24 24" fill="none" stroke="currentColor">
        <path stroke-linecap="round" stroke-linejoin="round" stroke-width="2" d="M15 9h3.75M15 12h3.75M15 15h3.75M4.5 19.5h15a2.25 2.25 0 0 0 2.25-2.25V6.75A2.25 2.25 0 0 0 19.5 4.5h-15a2.25 2.25 0 0 0-2.25 2.25v10.5A2.25 2.25 0 0 0 4.5 19.5Zm6-10.125a1.875 1.875 0 1 1-3.75 0 1.875 1.875 0 0 1 3.75 0Zm1.294 6.336a6.721 6.721 0 0 1-3.17.789 6.721 6.721 0 0 1-3.168-.789 3.376 3.376 0 0 1 6.338 0Z"/>
    </symbol>
    <symbol id="vrstenaloga" viewBox="0 0 24 24" fill="none" stroke="currentColor">
        <path stroke-linecap="round" stroke-linejoin="round" stroke-width="2" d="M12 7.5h1.5m-1.5 3h1.5m-7.5 3h7.5m-7.5 3h7.5m3-9h3.375c.621 0 1.125.504 1.125 1.125V18a2.25 2.25 0 0 1-2.25 2.25M16.5 7.5V18a2.25 2.25 0 0 0 2.25 2.25M16.5 7.5V4.875c0-.621-.504-1.125-1.125-1.125H4.125C3.504 3.75 3 4.254 3 4.875V18a2.25 2.25 0 0 0 2.25 2.25h13.5M6 7.5h3v3H6v-3Z"/>
    </symbol>
    <symbol id="vrstedokumenta" viewBox="0 0 24 24" fill="none" stroke="currentColor">
        <path stroke-linecap="round" stroke-linejoin="round" stroke-width="2" d="M3.75 12h16.5m-16.5 3.75h16.5M3.75 19.5h16.5M5.625 4.5h12.75a1.875 1.875 0 0 1 0 3.75H5.625a1.875 1.875 0 0 1 0-3.75Z"/>
    </symbol>
    <symbol id="vrsteporknjige" viewBox="0 0 24 24" fill="none" stroke="currentColor">
        <path stroke-linecap="round" stroke-linejoin="round" stroke-width="2" d="M6.429 9.75 2.25 12l4.179 2.25m0-4.5 5.571 3 5.571-3m-11.142 0L2.25 7.5 12 2.25l9.75 5.25-4.179 2.25m0 0L21.75 12l-4.179 2.25m0 0 4.179 2.25L12 21.75 2.25 16.5l4.179-2.25m11.142 0-5.571 3-5.571-3"/>
    </symbol>
    <symbol id="vrsteevpdv" viewBox="0 0 24 24" fill="none" stroke="currentColor">
        <path stroke-linecap="round" stroke-linejoin="round" stroke-width="2" d="m9 14.25 6-6m4.5-3.493V21.75l-3.75-1.5-3.75 1.5-3.75-1.5-3.75 1.5V4.757c0-1.108.806-2.057 1.907-2.185a48.507 48.507 0 0 1 11.186 0c1.1.128 1.907 1.077 1.907 2.185ZM9.75 9h.008v.008H9.75V9Zm.375 0a.375.375 0 1 1-.75 0 .375.375 0 0 1 .75 0Zm4.125 4.5h.008v.008h-.008V13.5Zm.375 0a.375.375 0 1 1-.75 0 .375.375 0 0 1 .75 0Z"/>
    </symbol>
    <symbol id="oj" viewBox="0 0 24 24" fill="none" stroke="currentColor">
        <path stroke-linecap="round" stroke-linejoin="round" stroke-width="2" d="M3.375 19.5h17.25m-17.25 0a1.125 1.125 0 0 1-1.125-1.125M3.375 19.5h7.5c.621 0 1.125-.504 1.125-1.125m-9.75 0V5.625m0 12.75v-1.5c0-.621.504-1.125 1.125-1.125m18.375 2.625V5.625m0 12.75c0 .621-.504 1.125-1.125 1.125m1.125-1.125v-1.5c0-.621-.504-1.125-1.125-1.125m0 3.75h-7.5A1.125 1.125 0 0 1 12 18.375m9.75-12.75c0-.621-.504-1.125-1.125-1.125H3.375c-.621 0-1.125.504-1.125 1.125m19.5 0v1.5c0 .621-.504 1.125-1.125 1.125M2.25 5.625v1.5c0 .621.504 1.125 1.125 1.125m0 0h17.25m-17.25 0h7.5c.621 0 1.125.504 1.125 1.125M3.375 8.25c-.621 0-1.125.504-1.125 1.125v1.5c0 .621.504 1.125 1.125 1.125m17.25-3.75h-7.5c-.621 0-1.125.504-1.125 1.125m8.625-1.125c.621 0 1.125.504 1.125 1.125v1.5c0 .621-.504 1.125-1.125 1.125m-17.25 0h7.5m-7.5 0c-.621 0-1.125.504-1.125 1.125v1.5c0 .621.504 1.125 1.125 1.125M12 10.875v-1.5m0 1.5c0 .621-.504 1.125-1.125 1.125M12 10.875c0 .621.504 1.125 1.125 1.125m-2.25 0c.621 0 1.125.504 1.125 1.125M13.125 12h7.5m-7.5 0c-.621 0-1.125.504-1.125 1.125M20.625 12c.621 0 1.125.504 1.125 1.125v1.5c0 .621-.504 1.125-1.125 1.125m-17.25 0h7.5M12 14.625v-1.5m0 1.5c0 .621-.504 1.125-1.125 1.125M12 14.625c0 .621.504 1.125 1.125 1.125m-2.25 0c.621 0 1.125.504 1.125 1.125m0 1.5v-1.5m0 0c0-.621.504-1.125 1.125-1.125m0 0h7.5"/>
    </symbol>
    <symbol id="mtroska" viewBox="0 0 24 24" fill="none" stroke="currentColor">
        <path stroke-linecap="round" stroke-linejoin="round" stroke-width="2" d="M19.5 14.25v-2.625a3.375 3.375 0 0 0-3.375-3.375h-1.5A1.125 1.125 0 0 1 13.5 7.125v-1.5a3.375 3.375 0 0 0-3.375-3.375H8.25m0 11.625h4.5m-4.5 2.25h4.5m2.121 1.527c-1.171 1.464-3.07 1.464-4.242 0-1.172-1.465-1.172-3.84 0-5.304 1.171-1.464 3.07-1.464 4.242 0M10.5 2.25H5.625c-.621 0-1.125.504-1.125 1.125v17.25c0 .621.504 1.125 1.125 1.125h12.75c.621 0 1.125-.504 1.125-1.125V11.25a9 9 0 0 0-9-9Z"/>
    </symbol>
    <symbol id="drzave" viewBox="0 0 24 24" fill="none" stroke="currentColor">
        <path stroke-linecap="round" stroke-linejoin="round" stroke-width="2" d="M9 6.75V15m6-6v8.25m.503 3.498 4.875-2.437c.381-.19.622-.58.622-1.006V4.82c0-.836-.88-1.38-1.628-1.006l-3.869 1.934c-.317.159-.69.159-1.006 0L9.503 3.252a1.125 1.125 0 0 0-1.006 0L3.622 5.689C3.24 5.88 3 6.27 3 6.695V19.18c0 .836.88 1.38 1.628 1.006l3.869-1.934c.317-.159.69-.159 1.006 0l4.994 2.497c.317.158.69.158 1.006 0Z"/>
    </symbol>
    <symbol id="opstine" viewBox="0 0 24 24" fill="none" stroke="currentColor">
        <path stroke-linecap="round" stroke-linejoin="round" stroke-width="2" d="M12 21v-8.25M15.75 21v-8.25M8.25 21v-8.25M3 9l9-6 9 6m-1.5 12V10.332A48.36 48.36 0 0 0 12 9.75c-2.551 0-5.056.2-7.5.582V21M3 21h18M12 6.75h.008v.008H12V6.75Z"/>
    </symbol>
    <symbol id="mesta" viewBox="0 0 24 24" fill="none" stroke="currentColor">
        <path stroke-linecap="round" stroke-linejoin="round" stroke-width="2" d="M13.5 21v-7.5a.75.75 0 0 1 .75-.75h3a.75.75 0 0 1 .75.75V21m-4.5 0H2.36m11.14 0H18m0 0h3.64m-1.39 0V9.349M3.75 21V9.349m0 0a3.001 3.001 0 0 0 3.75-.615A2.993 2.993 0 0 0 9.75 9.75c.896 0 1.7-.393 2.25-1.016a2.993 2.993 0 0 0 2.25 1.016c.896 0 1.7-.393 2.25-1.015a3.001 3.001 0 0 0 3.75.614m-16.5 0a3.004 3.004 0 0 1-.621-4.72l1.189-1.19A1.5 1.5 0 0 1 5.378 3h13.243a1.5 1.5 0 0 1 1.06.44l1.19 1.189a3 3 0 0 1-.621 4.72M6.75 18h3.75a.75.75 0 0 0 .75-.75V13.5a.75.75 0 0 0-.75-.75H6.75a.75.75 0 0 0-.75.75v3.75c0 .414.336.75.75.75Z"/>
    </symbol>
    <symbol id="banke" viewBox="0 0 24 24" fill="none" stroke="currentColor">
        <path stroke-linecap="round" stroke-linejoin="round" stroke-width="2" d="M3.75 21h16.5M4.5 3h15M5.25 3v18m13.5-18v18M9 6.75h1.5m-1.5 3h1.5m-1.5 3h1.5m3-6H15m-1.5 3H15m-1.5 3H15M9 21v-3.375c0-.621.504-1.125 1.125-1.125h3.75c.621 0 1.125.504 1.125 1.125V21"/>
    </symbol>
    <symbol id="bankeizv" viewBox="0 0 24 24" fill="none" stroke="currentColor">
        <path stroke-linecap="round" stroke-linejoin="round" stroke-width="2" d="M2.25 21h19.5m-18-18v18m10.5-18v18m6-13.5V21M6.75 6.75h.75m-.75 3h.75m-.75 3h.75m3-6h.75m-.75 3h.75m-.75 3h.75M6.75 21v-3.375c0-.621.504-1.125 1.125-1.125h2.25c.621 0 1.125.504 1.125 1.125V21M3 3h12m-.75 4.5H21m-3.75 3.75h.008v.008h-.008v-.008Zm0 3h.008v.008h-.008v-.008Zm0 3h.008v.008h-.008v-.008Z"/>
    </symbol>
    <symbol id="sifplizv" viewBox="0 0 24 24" fill="none" stroke="currentColor">
        <path stroke-linecap="round" stroke-linejoin="round" stroke-width="2" d="M8.242 5.992h12m-12 6.003H20.24m-12 5.999h12M4.117 7.495v-3.75H2.99m1.125 3.75H2.99m1.125 0H5.24m-1.92 2.577a1.125 1.125 0 1 1 1.591 1.59l-1.83 1.83h2.16M2.99 15.745h1.125a1.125 1.125 0 0 1 0 2.25H3.74m0-.002h.375a1.125 1.125 0 0 1 0 2.25H2.99"/>
    </symbol>
    <symbol id="kontniplan" viewBox="0 0 24 24" fill="none" stroke="currentColor">
        <path stroke-linecap="round" stroke-linejoin="round" stroke-width="2" d="M4 6h16M4 12h16M4 18h16"/>
    </symbol>
    <symbol id="fin_nalozi" viewBox="0 0 24 24" fill="none" stroke="currentColor">
        <path stroke-linecap="round" stroke-linejoin="round" stroke-width="2" d="M12 4.354a4 4 0 110 5.292M15 21H3v-1a6 6 0 0112 0v1zm0 0h6v-1a6 6 0 00-9-5.197M13 7a4 4 0 11-8 0 4 4 0 018 0z"/>
    </symbol>
    <symbol id="fin_nalozi1" fill="none" viewBox="0 0 24 24" stroke-width="1.5" stroke="currentColor" class="size-6">
      <path stroke-linecap="round" stroke-linejoin="round" stroke-width="2" d="m4 6a2.982 2.982 0 0 1 -2.122-.879l-1.544-1.374a1 1 0 0 1 1.332-1.494l1.585 1.414a1 1 0 0 0 1.456.04l3.604-3.431a1 1 0 0 1 1.378 1.448l-3.589 3.414a2.964 2.964 0 0 1 -2.1.862zm20-2a1 1 0 0 0 -1-1h-10a1 1 0 0 0 0 2h10a1 1 0 0 0 1-1zm-17.9 9.138 3.589-3.414a1 1 0 1 0 -1.378-1.448l-3.6 3.431a1.023 1.023 0 0 1 -1.414 0l-1.59-1.585a1 1 0 0 0 -1.414 1.414l1.585 1.585a3 3 0 0 0 4.226.017zm17.9-1.138a1 1 0 0 0 -1-1h-10a1 1 0 0 0 0 2h10a1 1 0 0 0 1-1zm-17.9 9.138 3.585-3.414a1 1 0 1 0 -1.378-1.448l-3.6 3.431a1 1 0 0 1 -1.456-.04l-1.585-1.414a1 1 0 0 0 -1.332 1.494l1.544 1.374a3 3 0 0 0 4.226.017zm17.9-1.138a1 1 0 0 0 -1-1h-10a1 1 0 0 0 0 2h10a1 1 0 0 0 1-1z"/>
    </symbol>
    <symbol id="fin_nalozi2" fill="none" viewBox="0 0 24 24" stroke-width="1.5" stroke="currentColor" class="size-6">
        <path stroke-linecap="round" stroke-linejoin="round" stroke-width="2" fill="currentColor" d="m115.87,400l84.13,0l0,-8.4l-84.13,0q-5.11,0 -5.11,-4.1t5.11,-4.1l84.13,0l0,-83.4l-84.13,0q-6.51,0 -10.69,3.61t-4.18,8.89l0,70.9l0.93,0q-0.93,2.34 -0.93,4.1q0,5.27 4.18,8.89t10.69,3.61zm-5.11,-87.5q0,-4.1 5.11,-4.1l74.37,0l0,66.6l-74.37,0q-1.86,0 -5.11,0.78l0,-63.28zm19.99,20.9l44.62,0l0,8.2l-44.62,0l0,-8.2zm0,-16.8l44.62,0l0,8.4l-44.62,0l0,-8.4z"/>
    </symbol>
     <symbol id="fin_nalozi3" fill="none" viewBox="0 0 24 24" stroke-width="1.5" stroke="currentColor" class="size-6">
        <path d="m-0.25,23.94l22.28,0c1.06,0 1.93,-0.75 1.93,-1.68l0,-16.74l-24.21,0l0,18.42zm9.81,-4.19c0.33,0.29 0.33,0.75 0,1.04c-0.17,0.14 -0.38,0.21 -0.6,0.21s-0.43,-0.07 -0.6,-0.21l-1.71,-1.49l-1.71,1.49c-0.17,0.14 -0.38,0.21 -0.6,0.21c-0.22,0 -0.43,-0.07 -0.6,-0.21c-0.33,-0.29 -0.33,-0.75 0,-1.04l1.71,-1.49l-1.71,-1.49c-0.33,-0.29 -0.33,-0.75 0,-1.04c0.33,-0.29 0.87,-0.29 1.19,0l1.71,1.49l1.71,-1.49c0.33,-0.29 0.87,-0.29 1.2,0c0.33,0.29 0.33,0.75 0,1.04l-1.71,1.49l1.71,1.49zm8,1.35l-0.59,0c-0.47,0 -0.84,-0.33 -0.84,-0.73s0.38,-0.73 0.84,-0.73l0.59,0c0.47,0 0.85,0.33 0.85,0.73s-0.38,0.73 -0.85,0.73zm-2.99,-11.27l5.4,0c0.47,0 0.85,0.33 0.85,0.73s-0.38,0.73 -0.85,0.73l-5.4,0c-0.47,0 -0.84,-0.33 -0.84,-0.73s0.38,-0.73 0.84,-0.73zm3.84,6.33c0,0.41 -0.38,0.73 -0.85,0.73l-0.59,0c-0.47,0 -0.84,-0.33 -0.84,-0.73c0,-0.41 0.38,-0.73 0.84,-0.73l0.59,0c0.47,0 0.85,0.33 0.85,0.73zm-3.84,1.37l5.4,0c0.47,0 0.85,0.33 0.85,0.73s-0.38,0.73 -0.85,0.73l-5.4,0c-0.47,0 -0.84,-0.33 -0.84,-0.73s0.38,-0.73 0.84,-0.73zm-10.61,-7.7l1.85,0l0,-1.61c0,-0.41 0.38,-0.73 0.84,-0.73c0.47,0 0.84,0.33 0.84,0.73l0,1.61l1.86,0c0.47,0 0.84,0.33 0.84,0.73s-0.38,0.73 -0.84,0.73l-1.86,0l0,1.61c0,0.41 -0.38,0.74 -0.84,0.74c-0.46,0 -0.84,-0.33 -0.84,-0.74l0,-1.61l-1.85,0c-0.47,0 -0.85,-0.33 -0.85,-0.73s0.38,-0.73 0.85,-0.73z"/>
    </symbol> <!-- Add more symbols as needed -->
</svg>
